<?xml version="1.0" encoding="UTF-8" standalone="no"?>
<svg
   width="28"
   height="22"
   viewBox="0 0 30 24"
   fill="none"
   version="1.1"
   id="svg1"
   sodipodi:docname="logo.svg"
   inkscape:version="1.3.2 (091e20e, 2023-11-25, custom)"
   xmlns:inkscape="http://www.inkscape.org/namespaces/inkscape"
   xmlns:sodipodi="http://sodipodi.sourceforge.net/DTD/sodipodi-0.dtd"
   xmlns="http://www.w3.org/2000/svg"
   xmlns:svg="http://www.w3.org/2000/svg">
  <sodipodi:namedview
     id="namedview1"
     pagecolor="#ffffff"
     bordercolor="#000000"
     borderopacity="0.25"
     inkscape:showpageshadow="2"
     inkscape:pageopacity="0.0"
     inkscape:pagecheckerboard="0"
     inkscape:deskcolor="#d1d1d1"
     inkscape:zoom="51.681818"
     inkscape:cx="14.008795"
     inkscape:cy="11"
     inkscape:window-width="2560"
     inkscape:window-height="1411"
     inkscape:window-x="3191"
     inkscape:window-y="-9"
     inkscape:window-maximized="1"
     inkscape:current-layer="svg1" />
  <defs
     id="defs1" />
  <path
     d="m 6.9248161,7.7846982 c 0,-0.901984 -0.7322088,-1.6341875 -1.6328725,-1.6341875 -0.9033122,0 -1.6341951,0.7322035 -1.6341951,1.6341875 0,0.9006637 0.7308829,1.6341955 1.6341951,1.6341955 0.9006637,0 1.6328725,-0.7335318 1.6328725,-1.6341955 z m 8.3832119,7.6934548 c -0.82771,-0.07563 -1.047901,-0.245393 -1.130142,-0.669857 -0.221518,-1.394107 -0.248047,-2.810761 -0.253353,-4.220791 0.0053,-1.4087003 0.03184,-2.8253546 0.253353,-4.2194615 0.08224,-0.4244636 0.302432,-0.5942521 1.130142,-0.6698647 C 16.52439,5.5880881 17.74473,5.540336 18.969051,5.5429846 h 4.199565 c 0.159175,1.6832834 0.257333,3.9621311 0.257333,6.4678084 0,1.284016 -0.0252,2.508334 -0.07163,3.622562 H 18.96905 c -1.224321,0.0023 -2.444661,-0.04508 -3.661023,-0.155202 z M 6.4154528,23.568219 V 12.562606 L 4.1657859,13.186039 V 23.352007 C 3.3646031,23.244565 2.7902503,23.11988 2.5130196,22.983256 1.7065318,22.663579 1.0618713,22.021575 0.73954496,21.216407 c -0.428448,-0.848927 -0.7521026,-4.649231 -0.7521026,-9.205614 0,-4.553726 0.3223342,-8.3553582 0.7521026,-9.2029571 C 1.0618713,2.0026685 1.7078522,1.359344 2.5156682,1.0396662 3.3871509,0.61387448 7.1728635,0.29286848 11.706695,0.29286848 c 4.537812,0 8.322195,0.321006 9.192352,0.74679772 0.806486,0.3196778 1.451145,0.9630023 1.774801,1.7681697 0.05571,0.112747 0.111422,0.2759025 0.16448,0.48681 -2.257631,0.00234 -4.966258,-0.00625 -6.957271,0.099481 -1.524099,0.050393 -3.24982,0.3767115 -3.788362,2.0692764 -0.424467,1.667353 -0.388652,3.4143024 -0.420487,5.1241017 0.03183,1.711129 -0.004,3.458071 0.420487,5.125431 0.538542,1.692565 2.264263,2.018868 3.788362,2.069277 2.103762,0.112747 5.012684,0.0955 7.339291,0.09948 -0.135299,1.689908 -0.327635,2.89964 -0.5465,3.333393 -0.323656,0.806488 -0.969641,1.448492 -1.776127,1.76949 -0.368756,0.179078 -1.252177,0.340905 -2.493741,0.466918 V 21.47905 h -7.917625 v 2.244362 c -1.4962448,-0.01859 -2.8823937,-0.0743 -4.0709022,-0.155194"
     style="fill:#7facd7;fill-opacity:1;fill-rule:evenodd;stroke:none;stroke-width:0.0132646"
     id="path24" />
</svg>
